<?xml version="1.0" encoding="UTF-8" standalone="no"?>
<svg
   width="547.08978"
   height="76.336014"
   viewBox="0 0 547.08978 76.336014"
   fill="none"
   version="1.1"
   id="svg39"
   sodipodi:docname="fem-light-logo.svg"
   inkscape:version="1.2.2 (732a01da63, 2022-12-09)"
   xmlns:inkscape="http://www.inkscape.org/namespaces/inkscape"
   xmlns:sodipodi="http://sodipodi.sourceforge.net/DTD/sodipodi-0.dtd"
   xmlns="http://www.w3.org/2000/svg"
   xmlns:svg="http://www.w3.org/2000/svg">
  <sodipodi:namedview
     id="namedview41"
     pagecolor="#ffffff"
     bordercolor="#000000"
     borderopacity="0.25"
     inkscape:showpageshadow="2"
     inkscape:pageopacity="0.0"
     inkscape:pagecheckerboard="0"
     inkscape:deskcolor="#d1d1d1"
     showgrid="false"
     inkscape:zoom="1.55875"
     inkscape:cx="377.86688"
     inkscape:cy="152.68645"
     inkscape:window-width="1920"
     inkscape:window-height="1009"
     inkscape:window-x="-8"
     inkscape:window-y="-8"
     inkscape:window-maximized="1"
     inkscape:current-layer="svg39" />
  <g
     clip-path="url(#clip0)"
     id="g32"
     inkscape:label="frontend-mentor"
     transform="translate(-125.90315,-115.026)">
    <path
       d="m 259.43,125.273 c -0.087,0.081 -0.189,0.143 -0.3,0.184 -0.112,0.04 -0.23,0.057 -0.348,0.05 h -20.398 c -0.196,0 -0.297,0.098 -0.297,0.294 v 12.485 c 0,0.196 0.098,0.294 0.297,0.294 h 13.892 c 0.271,0 0.486,0.079 0.641,0.234 0.158,0.158 0.234,0.373 0.234,0.645 v 3.106 c 0.007,0.118 -0.01,0.236 -0.051,0.346 -0.04,0.111 -0.102,0.213 -0.183,0.299 -0.085,0.081 -0.186,0.143 -0.296,0.183 -0.111,0.04 -0.228,0.058 -0.345,0.05 h -13.892 c -0.196,0 -0.297,0.098 -0.297,0.294 v 17.058 c 0.007,0.118 -0.009,0.236 -0.05,0.347 -0.04,0.111 -0.103,0.212 -0.184,0.298 -0.085,0.081 -0.186,0.143 -0.296,0.183 -0.11,0.04 -0.228,0.058 -0.345,0.05 h -3.871 c -0.118,0.008 -0.237,-0.01 -0.348,-0.05 -0.112,-0.04 -0.214,-0.102 -0.3,-0.183 -0.08,-0.087 -0.142,-0.188 -0.181,-0.299 -0.04,-0.111 -0.057,-0.229 -0.05,-0.346 v -39.279 c 0,-0.272 0.076,-0.486 0.231,-0.644 0.087,-0.081 0.189,-0.143 0.3,-0.183 0.111,-0.04 0.23,-0.058 0.348,-0.051 h 25.441 c 0.275,0 0.487,0.079 0.648,0.234 0.08,0.086 0.142,0.188 0.182,0.298 0.04,0.111 0.057,0.229 0.052,0.346 v 3.106 c 0.006,0.119 -0.011,0.238 -0.051,0.35 -0.04,0.112 -0.103,0.214 -0.183,0.301 z m 22.101,6.918 c 0.426,0.234 0.588,0.606 0.467,1.115 l -0.821,3.811 c -0.044,0.392 -0.234,0.588 -0.588,0.588 -0.158,0.006 -0.316,-0.015 -0.468,-0.06 -0.644,-0.205 -1.317,-0.304 -1.994,-0.294 -0.295,-0.006 -0.59,0.014 -0.881,0.06 -1.836,0.079 -3.353,0.714 -4.544,1.909 -1.192,1.191 -1.786,2.746 -1.786,4.661 v 16.823 c 0.008,0.118 -0.009,0.236 -0.049,0.347 -0.041,0.111 -0.103,0.212 -0.184,0.298 -0.086,0.081 -0.188,0.143 -0.299,0.183 -0.111,0.041 -0.228,0.058 -0.346,0.051 h -3.871 c -0.117,0.007 -0.235,-0.01 -0.345,-0.05 -0.111,-0.04 -0.211,-0.103 -0.297,-0.184 -0.161,-0.155 -0.233,-0.37 -0.233,-0.645 v -28.086 c 0,-0.271 0.072,-0.486 0.233,-0.641 0.086,-0.081 0.186,-0.143 0.297,-0.184 0.11,-0.04 0.228,-0.057 0.345,-0.05 h 3.871 c 0.272,0 0.487,0.076 0.645,0.234 0.158,0.155 0.233,0.37 0.233,0.641 v 2.699 c 0,0.158 0.029,0.247 0.089,0.265 0.057,0.019 0.123,-0.031 0.202,-0.148 1.76,-2.658 4.143,-3.985 7.154,-3.985 1.176,0 2.231,0.212 3.17,0.642 z m 11.164,27.76 c -2.13,-1.466 -3.624,-3.507 -4.484,-6.127 -0.705,-2.108 -1.055,-4.493 -1.055,-7.151 0,-2.775 0.328,-5.119 0.995,-7.037 0.856,-2.579 2.364,-4.601 4.512,-6.068 2.152,-1.466 4.709,-2.196 7.682,-2.196 2.816,0 5.268,0.73 7.36,2.196 2.086,1.467 3.584,3.47 4.481,6.008 0.705,1.994 1.055,4.338 1.055,7.037 0,2.733 -0.35,5.138 -1.055,7.208 -0.856,2.62 -2.345,4.664 -4.452,6.127 -2.111,1.466 -4.595,2.196 -7.445,2.196 -2.933,0.003 -5.464,-0.726 -7.594,-2.193 z m 11.695,-3.988 c 1.173,-0.878 2.013,-2.12 2.522,-3.725 0.43,-1.485 0.645,-3.321 0.645,-5.508 0,-2.187 -0.196,-4.007 -0.588,-5.454 -0.509,-1.602 -1.35,-2.841 -2.522,-3.723 -1.172,-0.881 -2.601,-1.321 -4.279,-1.321 -1.605,0 -2.986,0.443 -4.158,1.321 -1.172,0.879 -2.016,2.121 -2.525,3.723 -0.43,1.368 -0.641,3.185 -0.641,5.454 0,2.266 0.211,4.105 0.641,5.508 0.468,1.605 1.302,2.844 2.493,3.725 1.192,0.882 2.629,1.318 4.307,1.318 1.477,0.03 2.922,-0.434 4.105,-1.318 z m 38.574,-21.75 c 1.877,1.858 2.816,4.367 2.816,7.534 v 19.051 c 0.007,0.118 -0.011,0.236 -0.051,0.346 -0.04,0.111 -0.102,0.213 -0.183,0.299 -0.086,0.081 -0.188,0.143 -0.3,0.183 -0.111,0.041 -0.23,0.058 -0.348,0.051 h -3.868 c -0.117,0.007 -0.235,-0.01 -0.346,-0.05 -0.111,-0.04 -0.213,-0.103 -0.298,-0.184 -0.081,-0.086 -0.144,-0.187 -0.184,-0.298 -0.04,-0.111 -0.057,-0.229 -0.05,-0.347 v -17.936 c 0,-1.953 -0.569,-3.536 -1.7,-4.749 -1.131,-1.211 -2.639,-1.817 -4.516,-1.817 -1.678,0 -3.097,0.499 -4.25,1.497 -1.153,0.996 -1.83,2.336 -2.022,4.017 v 18.994 c 0.006,0.118 -0.011,0.236 -0.051,0.347 -0.04,0.111 -0.103,0.212 -0.183,0.298 -0.087,0.081 -0.189,0.144 -0.3,0.184 -0.111,0.04 -0.23,0.057 -0.348,0.05 h -3.871 c -0.117,0.007 -0.235,-0.01 -0.345,-0.05 -0.11,-0.04 -0.211,-0.103 -0.296,-0.184 -0.082,-0.086 -0.144,-0.187 -0.184,-0.298 -0.041,-0.111 -0.058,-0.229 -0.05,-0.347 v -28.086 c 0,-0.271 0.076,-0.486 0.234,-0.641 0.085,-0.081 0.186,-0.143 0.296,-0.184 0.11,-0.04 0.228,-0.057 0.345,-0.05 h 3.871 c 0.275,0 0.49,0.076 0.648,0.234 0.08,0.086 0.142,0.186 0.182,0.297 0.041,0.11 0.058,0.227 0.052,0.344 v 1.644 c 0,0.117 0.038,0.196 0.117,0.233 0.072,0.042 0.135,0.023 0.173,-0.06 1.644,-2.069 4.105,-3.103 7.388,-3.103 3.205,0 5.748,0.926 7.622,2.781 z m 26.791,2.022 c -0.086,0.081 -0.188,0.143 -0.298,0.184 -0.111,0.04 -0.229,0.057 -0.347,0.05 h -5.982 c -0.196,0 -0.29,0.098 -0.29,0.294 v 15.301 c 0,1.681 0.357,2.872 1.083,3.577 0.724,0.705 1.887,1.055 3.489,1.055 h 1.406 c 0.275,0 0.49,0.079 0.645,0.234 0.08,0.087 0.142,0.188 0.182,0.299 0.04,0.111 0.058,0.228 0.052,0.346 v 3.049 c 0,0.55 -0.294,0.86 -0.879,0.939 l -2.404,0.06 c -3.009,0 -5.259,-0.528 -6.741,-1.583 -1.488,-1.056 -2.228,-3.028 -2.228,-5.922 v -17.355 c 0,-0.196 -0.097,-0.294 -0.297,-0.294 h -3.223 c -0.117,0.007 -0.235,-0.01 -0.346,-0.05 -0.111,-0.04 -0.213,-0.103 -0.298,-0.184 -0.082,-0.085 -0.144,-0.187 -0.184,-0.297 -0.041,-0.111 -0.058,-0.229 -0.05,-0.347 v -2.873 c 0,-0.271 0.076,-0.486 0.234,-0.641 0.085,-0.081 0.187,-0.143 0.298,-0.184 0.111,-0.04 0.229,-0.057 0.346,-0.05 h 3.223 c 0.196,0 0.297,-0.098 0.297,-0.294 v -6.566 c 0,-0.275 0.076,-0.487 0.234,-0.645 0.085,-0.081 0.186,-0.143 0.297,-0.184 0.11,-0.04 0.228,-0.057 0.345,-0.05 h 3.634 c 0.275,0 0.486,0.076 0.648,0.234 0.154,0.158 0.233,0.37 0.233,0.645 v 6.566 c 0,0.196 0.095,0.294 0.291,0.294 h 5.982 c 0.272,0 0.487,0.076 0.645,0.234 0.158,0.155 0.234,0.37 0.234,0.641 v 2.873 c 0.008,0.117 -0.008,0.236 -0.048,0.347 -0.039,0.111 -0.102,0.212 -0.183,0.297 z m 27.261,17.412 c 0.196,-0.351 0.411,-0.528 0.645,-0.528 0.196,0 0.37,0.06 0.524,0.177 l 2.408,1.467 c 0.313,0.195 0.468,0.451 0.468,0.761 l -0.117,0.468 c -1.039,1.899 -2.595,3.464 -4.487,4.515 -1.931,1.097 -4.19,1.644 -6.772,1.644 -2.775,0 -5.119,-0.613 -7.037,-1.846 -1.912,-1.232 -3.359,-2.999 -4.336,-5.309 -0.979,-2.382 -1.466,-5.179 -1.466,-8.38 0,-2.853 0.215,-5.021 0.645,-6.51 0.704,-2.698 2.107,-4.825 4.218,-6.389 2.111,-1.561 4.674,-2.342 7.682,-2.342 3.713,0 6.544,0.967 8.5,2.901 1.953,1.934 3.224,4.74 3.808,8.412 0.196,1.447 0.332,3.208 0.414,5.277 0,0.588 -0.297,0.879 -0.881,0.879 h -18.521 c -0.196,0 -0.297,0.095 -0.297,0.294 0.079,1.485 0.215,2.54 0.414,3.163 0.426,1.564 1.289,2.797 2.578,3.694 1.29,0.901 2.889,1.349 4.807,1.349 3.166,-0.041 5.435,-1.273 6.803,-3.697 z m -11.812,-16.179 c -1.077,0.821 -1.807,1.956 -2.199,3.4 -0.308,1.069 -0.484,2.172 -0.525,3.283 0,0.196 0.095,0.294 0.291,0.294 h 13.31 c 0.196,0 0.294,-0.098 0.294,-0.294 -0.079,-1.289 -0.196,-2.246 -0.351,-2.872 -0.341,-1.445 -1.155,-2.734 -2.313,-3.663 -1.154,-0.919 -2.591,-1.381 -4.31,-1.381 -1.719,0 -3.126,0.411 -4.197,1.233 z m 46.395,-3.255 c 1.877,1.858 2.816,4.367 2.816,7.534 v 19.051 c 0.007,0.118 -0.01,0.236 -0.05,0.347 -0.04,0.111 -0.103,0.212 -0.184,0.298 -0.085,0.081 -0.186,0.143 -0.296,0.183 -0.111,0.041 -0.228,0.058 -0.346,0.051 h -3.871 c -0.117,0.007 -0.235,-0.011 -0.346,-0.051 -0.111,-0.04 -0.212,-0.102 -0.298,-0.183 -0.081,-0.086 -0.144,-0.187 -0.184,-0.298 -0.04,-0.111 -0.057,-0.229 -0.05,-0.347 v -17.936 c 0,-1.953 -0.569,-3.536 -1.7,-4.749 -1.135,-1.211 -2.639,-1.817 -4.516,-1.817 -1.681,0 -3.093,0.499 -4.25,1.497 -1.157,0.999 -1.826,2.336 -2.026,4.017 v 18.994 c 0.008,0.118 -0.009,0.236 -0.049,0.347 -0.041,0.111 -0.103,0.212 -0.184,0.298 -0.086,0.081 -0.186,0.144 -0.297,0.184 -0.11,0.04 -0.228,0.057 -0.345,0.05 h -3.871 c -0.118,0.007 -0.236,-0.01 -0.346,-0.05 -0.111,-0.04 -0.213,-0.103 -0.298,-0.184 -0.082,-0.086 -0.144,-0.187 -0.184,-0.298 -0.041,-0.111 -0.058,-0.229 -0.05,-0.347 v -28.086 c 0,-0.271 0.076,-0.486 0.234,-0.641 0.085,-0.081 0.187,-0.144 0.298,-0.184 0.11,-0.04 0.228,-0.057 0.346,-0.05 h 3.871 c 0.272,0 0.487,0.076 0.642,0.234 0.158,0.155 0.233,0.37 0.233,0.641 v 1.644 c 0,0.117 0.042,0.196 0.117,0.233 0.079,0.042 0.136,0.023 0.181,-0.06 1.643,-2.069 4.104,-3.103 7.384,-3.103 3.208,0 5.745,0.926 7.619,2.781 z m 30.725,-13.335 c 0.085,-0.08 0.186,-0.142 0.297,-0.183 0.11,-0.04 0.227,-0.057 0.344,-0.051 h 3.871 c 0.118,-0.006 0.236,0.012 0.346,0.052 0.111,0.04 0.213,0.102 0.299,0.182 0.158,0.158 0.234,0.373 0.234,0.645 v 39.278 c 0.007,0.118 -0.01,0.236 -0.05,0.347 -0.04,0.111 -0.103,0.212 -0.184,0.298 -0.086,0.081 -0.187,0.143 -0.298,0.183 -0.111,0.04 -0.229,0.058 -0.347,0.051 h -3.871 c -0.117,0.007 -0.234,-0.01 -0.345,-0.05 -0.11,-0.041 -0.211,-0.103 -0.296,-0.184 -0.161,-0.155 -0.234,-0.37 -0.234,-0.645 v -1.523 c 0,-0.117 -0.044,-0.196 -0.117,-0.234 -0.079,-0.038 -0.161,-0.019 -0.234,0.06 -0.862,0.98 -1.87,1.732 -3.021,2.26 -1.15,0.524 -2.414,0.79 -3.779,0.79 -2.816,0 -5.151,-0.695 -7.006,-2.079 -1.858,-1.388 -3.217,-3.353 -4.073,-5.894 -0.705,-1.953 -1.055,-4.452 -1.055,-7.502 0,-2.853 0.29,-5.217 0.875,-7.094 0.822,-2.578 2.177,-4.591 4.073,-6.039 1.896,-1.444 4.288,-2.167 7.183,-2.167 1.368,0 2.629,0.252 3.779,0.761 1.15,0.506 2.158,1.251 3.021,2.225 0.073,0.079 0.155,0.107 0.234,0.088 0.073,-0.019 0.117,-0.088 0.117,-0.205 v -12.719 c 0.003,-0.278 0.076,-0.496 0.237,-0.651 z m -0.297,25.852 c 0,-3.208 -0.506,-5.707 -1.523,-7.505 -1.132,-1.994 -2.794,-2.99 -4.98,-2.99 -2.269,0 -4.007,0.939 -5.218,2.816 -1.251,1.956 -1.877,4.535 -1.877,7.739 0,3.008 0.49,5.432 1.467,7.268 1.131,2.152 3.008,3.226 5.628,3.226 2.227,0 3.924,-1.055 5.097,-3.166 0.938,-1.722 1.406,-4.184 1.406,-7.388 z m 29.606,14.716 c -0.081,-0.086 -0.144,-0.187 -0.184,-0.298 -0.04,-0.111 -0.057,-0.229 -0.05,-0.347 v -39.278 c 0,-0.272 0.076,-0.487 0.234,-0.645 0.085,-0.08 0.186,-0.142 0.297,-0.183 0.11,-0.04 0.227,-0.057 0.344,-0.051 h 3.931 c 0.468,0 0.822,0.196 1.056,0.588 l 9.846,15.711 c 0.117,0.234 0.234,0.234 0.351,0 l 9.91,-15.711 c 0.105,-0.186 0.259,-0.339 0.445,-0.443 0.186,-0.104 0.397,-0.154 0.61,-0.145 h 3.925 c 0.118,-0.006 0.235,0.012 0.346,0.052 0.111,0.04 0.212,0.102 0.299,0.182 0.158,0.158 0.234,0.373 0.234,0.645 v 39.278 c 0.007,0.118 -0.01,0.236 -0.05,0.347 -0.041,0.111 -0.103,0.212 -0.184,0.298 -0.086,0.081 -0.188,0.143 -0.299,0.183 -0.11,0.04 -0.228,0.058 -0.346,0.051 h -3.871 c -0.117,0.007 -0.235,-0.01 -0.345,-0.05 -0.11,-0.041 -0.211,-0.103 -0.296,-0.184 -0.162,-0.155 -0.234,-0.37 -0.234,-0.645 v -29.78 c 0,-0.158 -0.044,-0.243 -0.117,-0.265 -0.079,-0.019 -0.161,0.032 -0.234,0.149 l -7.973,13.012 c -0.104,0.186 -0.258,0.34 -0.444,0.444 -0.187,0.103 -0.398,0.153 -0.611,0.144 h -1.877 c -0.213,0.009 -0.425,-0.041 -0.611,-0.144 -0.186,-0.104 -0.34,-0.258 -0.445,-0.444 l -7.912,-13.012 c -0.079,-0.117 -0.161,-0.168 -0.234,-0.149 -0.079,0.022 -0.117,0.107 -0.117,0.265 v 29.78 c 0.007,0.118 -0.011,0.236 -0.051,0.347 -0.04,0.11 -0.102,0.212 -0.183,0.298 -0.086,0.081 -0.189,0.143 -0.3,0.183 -0.111,0.04 -0.229,0.057 -0.348,0.051 h -3.871 c -0.117,0.006 -0.234,-0.011 -0.344,-0.051 -0.111,-0.041 -0.212,-0.103 -0.297,-0.183 z m 61.32,-7.799 c 0.196,-0.351 0.414,-0.528 0.648,-0.528 0.189,-0.001 0.374,0.062 0.524,0.177 l 2.405,1.467 c 0.313,0.195 0.468,0.451 0.468,0.761 l -0.117,0.468 c -1.039,1.898 -2.594,3.463 -4.484,4.515 -1.934,1.097 -4.191,1.644 -6.772,1.644 -2.778,0 -5.123,-0.613 -7.038,-1.846 -1.915,-1.232 -3.362,-2.999 -4.338,-5.309 -0.977,-2.382 -1.463,-5.179 -1.463,-8.38 0,-2.853 0.211,-5.021 0.641,-6.51 0.705,-2.698 2.111,-4.825 4.222,-6.389 2.111,-1.561 4.673,-2.342 7.679,-2.342 3.716,0 6.547,0.967 8.503,2.901 1.95,1.934 3.223,4.74 3.808,8.412 0.22,1.752 0.357,3.513 0.411,5.277 0,0.588 -0.294,0.879 -0.879,0.879 h -18.524 c -0.196,0 -0.294,0.095 -0.294,0.294 0.079,1.485 0.215,2.54 0.411,3.163 0.43,1.564 1.29,2.797 2.579,3.694 1.289,0.901 2.891,1.349 4.806,1.349 3.167,-0.041 5.435,-1.273 6.804,-3.697 z m -11.816,-16.179 c -1.074,0.821 -1.807,1.956 -2.196,3.4 -0.309,1.069 -0.486,2.171 -0.527,3.283 0,0.196 0.094,0.294 0.293,0.294 h 13.307 c 0.196,0 0.297,-0.098 0.297,-0.294 -0.079,-1.289 -0.196,-2.246 -0.351,-2.872 -0.343,-1.444 -1.158,-2.733 -2.316,-3.663 -1.15,-0.919 -2.588,-1.381 -4.31,-1.381 -1.722,0 -3.122,0.411 -4.197,1.233 z m 46.402,-3.255 c 1.877,1.858 2.815,4.367 2.815,7.534 v 19.051 c 0.008,0.118 -0.009,0.236 -0.049,0.347 -0.041,0.111 -0.103,0.212 -0.184,0.298 -0.086,0.081 -0.186,0.143 -0.297,0.183 -0.11,0.041 -0.228,0.058 -0.345,0.051 h -3.871 c -0.118,0.007 -0.235,-0.011 -0.346,-0.051 -0.111,-0.04 -0.213,-0.102 -0.299,-0.183 -0.081,-0.086 -0.143,-0.187 -0.183,-0.298 -0.041,-0.111 -0.058,-0.229 -0.05,-0.347 v -17.936 c 0,-1.953 -0.569,-3.536 -1.7,-4.749 -1.135,-1.211 -2.639,-1.817 -4.516,-1.817 -1.681,0 -3.094,0.499 -4.25,1.497 -1.157,0.999 -1.827,2.336 -2.026,4.017 v 18.994 c 0.008,0.118 -0.009,0.236 -0.05,0.347 -0.04,0.111 -0.103,0.212 -0.184,0.298 -0.085,0.081 -0.186,0.144 -0.296,0.184 -0.11,0.04 -0.228,0.057 -0.345,0.05 h -3.871 c -0.118,0.007 -0.236,-0.01 -0.347,-0.05 -0.111,-0.04 -0.212,-0.103 -0.298,-0.184 -0.081,-0.086 -0.144,-0.187 -0.184,-0.298 -0.04,-0.111 -0.057,-0.229 -0.05,-0.347 v -28.086 c 0,-0.271 0.076,-0.486 0.234,-0.641 0.086,-0.081 0.187,-0.144 0.298,-0.184 0.111,-0.04 0.229,-0.057 0.347,-0.05 h 3.871 c 0.272,0 0.486,0.076 0.641,0.234 0.158,0.155 0.234,0.37 0.234,0.641 v 1.644 c 0,0.117 0.041,0.196 0.117,0.233 0.079,0.042 0.136,0.023 0.18,-0.06 1.643,-2.069 4.105,-3.103 7.385,-3.103 3.204,0 5.745,0.926 7.619,2.781 z m 26.79,2.022 c -0.085,0.082 -0.187,0.144 -0.298,0.184 -0.111,0.041 -0.229,0.058 -0.346,0.05 h -5.979 c -0.196,0 -0.297,0.098 -0.297,0.294 v 15.301 c 0,1.681 0.363,2.872 1.087,3.577 0.724,0.705 1.883,1.055 3.489,1.055 h 1.406 c 0.117,-0.005 0.235,0.012 0.346,0.052 0.11,0.041 0.212,0.102 0.299,0.182 0.158,0.158 0.233,0.373 0.233,0.645 v 3.049 c 0,0.55 -0.294,0.86 -0.878,0.939 l -2.405,0.06 c -3.008,0 -5.255,-0.528 -6.743,-1.583 -1.486,-1.056 -2.228,-3.028 -2.228,-5.922 v -17.355 c 0,-0.196 -0.095,-0.294 -0.291,-0.294 h -3.226 c -0.118,0.008 -0.236,-0.009 -0.347,-0.05 -0.111,-0.04 -0.212,-0.102 -0.298,-0.184 -0.081,-0.085 -0.144,-0.187 -0.184,-0.297 -0.04,-0.111 -0.057,-0.229 -0.05,-0.347 v -2.873 c 0,-0.271 0.076,-0.486 0.234,-0.641 0.086,-0.081 0.187,-0.144 0.298,-0.184 0.111,-0.04 0.229,-0.057 0.347,-0.05 h 3.226 c 0.196,0 0.291,-0.098 0.291,-0.294 v -6.566 c 0,-0.275 0.079,-0.487 0.234,-0.645 0.086,-0.081 0.188,-0.143 0.3,-0.183 0.111,-0.041 0.229,-0.058 0.347,-0.051 h 3.635 c 0.271,0 0.486,0.076 0.641,0.234 0.158,0.158 0.234,0.37 0.234,0.645 v 6.566 c 0,0.196 0.098,0.294 0.297,0.294 h 5.979 c 0.275,0 0.489,0.076 0.644,0.234 0.08,0.086 0.143,0.186 0.183,0.297 0.04,0.11 0.057,0.227 0.051,0.344 v 2.873 c 0.009,0.117 -0.007,0.236 -0.047,0.347 -0.04,0.111 -0.102,0.212 -0.184,0.297 z m 12.574,23.716 c -2.13,-1.466 -3.621,-3.507 -4.481,-6.127 -0.705,-2.108 -1.055,-4.493 -1.055,-7.151 0,-2.775 0.328,-5.119 0.992,-7.037 0.856,-2.579 2.364,-4.601 4.516,-6.068 2.152,-1.466 4.708,-2.196 7.682,-2.196 2.815,0 5.264,0.73 7.356,2.196 2.089,1.467 3.587,3.47 4.484,6.008 0.705,1.994 1.056,4.338 1.056,7.037 0,2.733 -0.351,5.138 -1.056,7.208 -0.859,2.62 -2.345,4.664 -4.452,6.127 -2.111,1.466 -4.595,2.196 -7.449,2.196 -2.932,0.003 -5.463,-0.726 -7.593,-2.193 z m 11.695,-3.988 c 1.173,-0.878 2.013,-2.12 2.525,-3.725 0.427,-1.485 0.642,-3.321 0.642,-5.508 0,-2.187 -0.196,-4.007 -0.588,-5.454 -0.506,-1.602 -1.346,-2.841 -2.519,-3.723 -1.172,-0.881 -2.6,-1.321 -4.282,-1.321 -1.602,0 -2.986,0.443 -4.158,1.321 -1.173,0.879 -2.013,2.121 -2.522,3.723 -0.43,1.368 -0.644,3.185 -0.644,5.454 0,2.266 0.214,4.105 0.644,5.508 0.468,1.605 1.299,2.844 2.49,3.725 1.192,0.882 2.629,1.318 4.307,1.318 1.477,0.03 2.922,-0.434 4.105,-1.318 z m 33.888,-23.772 c 0.43,0.234 0.588,0.606 0.468,1.115 l -0.822,3.811 c -0.041,0.392 -0.234,0.588 -0.588,0.588 -0.158,0.006 -0.316,-0.015 -0.467,-0.06 -0.645,-0.205 -1.318,-0.304 -1.994,-0.294 -0.392,0 -0.683,0.022 -0.879,0.06 -1.839,0.079 -3.353,0.714 -4.544,1.909 -1.191,1.191 -1.788,2.746 -1.788,4.661 v 16.823 c 0.007,0.118 -0.01,0.236 -0.05,0.347 -0.04,0.111 -0.103,0.212 -0.184,0.298 -0.085,0.081 -0.186,0.144 -0.297,0.184 -0.11,0.04 -0.227,0.057 -0.345,0.05 h -3.871 c -0.118,0.007 -0.235,-0.01 -0.346,-0.05 -0.111,-0.04 -0.213,-0.103 -0.298,-0.184 -0.082,-0.086 -0.144,-0.187 -0.184,-0.298 -0.041,-0.111 -0.058,-0.229 -0.05,-0.347 v -28.086 c 0,-0.271 0.076,-0.486 0.234,-0.641 0.085,-0.081 0.187,-0.144 0.298,-0.184 0.111,-0.04 0.228,-0.057 0.346,-0.05 h 3.871 c 0.272,0 0.487,0.076 0.642,0.234 0.158,0.155 0.234,0.37 0.234,0.641 v 2.699 c 0,0.158 0.031,0.247 0.088,0.265 0.057,0.019 0.126,-0.031 0.205,-0.148 1.761,-2.658 4.143,-3.985 7.152,-3.985 1.175,0 2.231,0.212 3.169,0.642 z"
       fill="#1c2122"
       id="path4"
       inkscape:label="name" />
    <g
       id="g840"
       inkscape:label="logo">
      <path
         d="m 201.248,151.448 c -0.335,0 -0.665,-0.07 -0.971,-0.206 l -20.344,-9.11 c -0.417,-0.188 -0.771,-0.492 -1.019,-0.876 -0.249,-0.384 -0.381,-0.831 -0.381,-1.289 0,-0.457 0.132,-0.905 0.381,-1.289 0.248,-0.384 0.602,-0.688 1.019,-0.875 l 20.344,-9.079 c 0.575,-0.255 1.227,-0.272 1.813,-0.048 0.587,0.225 1.061,0.673 1.319,1.246 0.255,0.574 0.271,1.227 0.046,1.813 -0.225,0.587 -0.673,1.061 -1.247,1.318 l -15.5,6.917 15.503,6.943 c 0.496,0.221 0.901,0.606 1.147,1.089 0.247,0.484 0.319,1.037 0.207,1.568 -0.113,0.531 -0.405,1.007 -0.827,1.349 -0.421,0.342 -0.948,0.528 -1.49,0.529 z"
         fill="#67bece"
         id="path6" />
      <path
         d="m 173.522,184.498 c -22.367,0 -41.921,-15.098 -47.542,-36.719 -0.159,-0.608 -0.069,-1.254 0.249,-1.796 0.318,-0.542 0.838,-0.936 1.446,-1.094 0.608,-0.158 1.254,-0.069 1.796,0.249 0.542,0.318 0.935,0.838 1.094,1.446 2.48,9.504 8.042,17.916 15.816,23.92 7.774,6.003 17.319,9.258 27.141,9.254 0.628,0 1.231,0.25 1.676,0.694 0.444,0.445 0.694,1.047 0.694,1.676 0,0.629 -0.25,1.231 -0.694,1.676 -0.445,0.444 -1.048,0.694 -1.676,0.694 z"
         fill="#3f54a3"
         id="path8" />
      <path
         d="m 165.356,164.818 c -0.628,0 -1.231,-0.25 -1.676,-0.695 -0.444,-0.444 -0.694,-1.047 -0.694,-1.675 v -45.052 c 0,-0.629 0.25,-1.232 0.694,-1.676 0.445,-0.445 1.048,-0.694 1.676,-0.694 0.629,0 1.232,0.249 1.676,0.694 0.445,0.444 0.694,1.047 0.694,1.676 v 45.052 c 0,0.628 -0.249,1.231 -0.694,1.675 -0.444,0.445 -1.047,0.695 -1.676,0.695 z"
         fill="#67bece"
         id="path10" />
    </g>
    <g
       id="g835"
       inkscape:label="wavy">
      <path
         d="m 254.804,191.362 c -0.312,0 -0.62,-0.061 -0.908,-0.18 -0.287,-0.119 -0.548,-0.295 -0.767,-0.516 l -10.343,-10.346 -10.343,10.343 c -0.22,0.22 -0.481,0.395 -0.769,0.514 -0.287,0.119 -0.596,0.181 -0.907,0.181 -0.311,0 -0.62,-0.062 -0.907,-0.181 -0.288,-0.119 -0.549,-0.294 -0.769,-0.514 -0.221,-0.22 -0.395,-0.481 -0.514,-0.769 -0.119,-0.288 -0.181,-0.596 -0.181,-0.907 0,-0.312 0.062,-0.62 0.181,-0.907 0.119,-0.288 0.293,-0.549 0.514,-0.77 l 12.02,-12.02 c 0.22,-0.22 0.481,-0.395 0.769,-0.514 0.287,-0.119 0.595,-0.181 0.906,-0.181 0.311,0 0.619,0.062 0.907,0.181 0.287,0.119 0.548,0.294 0.768,0.514 l 12.02,12.024 c 0.333,0.331 0.559,0.754 0.651,1.214 0.092,0.46 0.045,0.937 -0.135,1.371 -0.18,0.434 -0.484,0.804 -0.875,1.064 -0.39,0.261 -0.849,0.399 -1.318,0.399 z"
         fill="#f9c7c5"
         id="path12" />
      <path
         d="m 278.838,191.362 c -0.311,0 -0.619,-0.061 -0.906,-0.181 -0.288,-0.119 -0.549,-0.294 -0.768,-0.515 l -10.343,-10.345 -10.34,10.342 c -0.22,0.22 -0.481,0.395 -0.769,0.514 -0.287,0.119 -0.596,0.181 -0.907,0.181 -0.311,0 -0.62,-0.062 -0.907,-0.181 -0.288,-0.119 -0.549,-0.294 -0.769,-0.514 -0.22,-0.22 -0.395,-0.481 -0.514,-0.769 -0.119,-0.288 -0.181,-0.596 -0.181,-0.907 0,-0.311 0.062,-0.62 0.181,-0.907 0.119,-0.288 0.294,-0.549 0.514,-0.77 l 12.017,-12.02 c 0.454,-0.428 1.053,-0.666 1.677,-0.666 0.623,0 1.223,0.238 1.676,0.666 l 12.021,12.024 c 0.332,0.331 0.559,0.754 0.65,1.215 0.092,0.46 0.045,0.938 -0.135,1.372 -0.18,0.433 -0.485,0.804 -0.876,1.064 -0.391,0.26 -0.851,0.398 -1.321,0.397 z"
         fill="#f9c7c5"
         id="path14" />
      <path
         d="m 302.88,191.361 c -0.312,0.001 -0.621,-0.06 -0.909,-0.179 -0.288,-0.119 -0.549,-0.295 -0.769,-0.516 l -10.34,-10.346 -10.342,10.343 c -0.22,0.22 -0.482,0.395 -0.769,0.514 -0.288,0.119 -0.596,0.18 -0.908,0.18 -0.311,0 -0.619,-0.061 -0.907,-0.18 -0.287,-0.119 -0.549,-0.294 -0.769,-0.514 -0.22,-0.22 -0.395,-0.481 -0.514,-0.769 -0.119,-0.288 -0.18,-0.596 -0.18,-0.907 0,-0.312 0.061,-0.62 0.18,-0.908 0.119,-0.287 0.294,-0.549 0.514,-0.769 l 12.021,-12.02 c 0.444,-0.444 1.046,-0.693 1.674,-0.693 0.629,0 1.231,0.249 1.675,0.693 l 12.018,12.023 c 0.332,0.332 0.558,0.754 0.65,1.214 0.092,0.46 0.045,0.937 -0.134,1.371 -0.179,0.433 -0.483,0.803 -0.873,1.064 -0.39,0.261 -0.849,0.4 -1.318,0.399 z"
         fill="#f9c7c5"
         id="path16" />
      <path
         d="m 326.912,191.362 c -0.311,0 -0.619,-0.061 -0.906,-0.181 -0.287,-0.119 -0.547,-0.294 -0.766,-0.515 l -10.343,-10.345 -10.342,10.342 c -0.22,0.22 -0.482,0.395 -0.769,0.514 -0.288,0.119 -0.596,0.181 -0.908,0.181 -0.311,0 -0.619,-0.062 -0.907,-0.181 -0.288,-0.119 -0.549,-0.294 -0.769,-0.514 -0.22,-0.22 -0.395,-0.481 -0.514,-0.769 -0.119,-0.288 -0.18,-0.596 -0.18,-0.907 0,-0.311 0.061,-0.62 0.18,-0.907 0.119,-0.288 0.294,-0.549 0.514,-0.77 l 12.017,-12.02 c 0.454,-0.428 1.054,-0.666 1.677,-0.666 0.623,0 1.223,0.238 1.676,0.666 l 12.024,12.024 c 0.333,0.331 0.559,0.755 0.651,1.216 0.091,0.46 0.044,0.938 -0.137,1.372 -0.18,0.434 -0.485,0.804 -0.877,1.064 -0.391,0.26 -0.851,0.398 -1.321,0.396 z"
         fill="#f9c7c5"
         id="path18" />
      <path
         d="m 350.953,191.362 c -0.312,0 -0.62,-0.061 -0.907,-0.181 -0.288,-0.119 -0.549,-0.294 -0.768,-0.515 l -10.346,-10.345 -10.336,10.342 c -0.22,0.22 -0.482,0.395 -0.769,0.514 -0.288,0.119 -0.596,0.181 -0.908,0.181 -0.311,0 -0.619,-0.062 -0.907,-0.181 -0.288,-0.119 -0.549,-0.294 -0.769,-0.514 -0.22,-0.22 -0.395,-0.481 -0.514,-0.769 -0.119,-0.288 -0.18,-0.596 -0.18,-0.907 0,-0.311 0.061,-0.62 0.18,-0.907 0.119,-0.288 0.294,-0.549 0.514,-0.77 l 12.017,-12.02 c 0.454,-0.428 1.054,-0.666 1.677,-0.666 0.623,0 1.223,0.238 1.676,0.666 l 12.021,12.024 c 0.332,0.331 0.559,0.754 0.651,1.215 0.091,0.46 0.044,0.938 -0.136,1.372 -0.18,0.433 -0.485,0.804 -0.876,1.064 -0.391,0.26 -0.851,0.398 -1.32,0.397 z"
         fill="#f9c7c5"
         id="path20" />
      <path
         d="m 374.988,191.362 c -0.312,0.001 -0.62,-0.06 -0.907,-0.179 -0.288,-0.12 -0.549,-0.295 -0.768,-0.516 l -10.343,-10.346 -10.339,10.343 c -0.221,0.22 -0.482,0.395 -0.769,0.514 -0.288,0.119 -0.596,0.18 -0.908,0.18 -0.311,0 -0.619,-0.061 -0.907,-0.18 -0.288,-0.119 -0.549,-0.294 -0.769,-0.514 -0.22,-0.22 -0.395,-0.482 -0.514,-0.769 -0.119,-0.288 -0.181,-0.596 -0.181,-0.907 0,-0.312 0.062,-0.62 0.181,-0.908 0.119,-0.287 0.294,-0.549 0.514,-0.769 l 12.017,-12.02 c 0.454,-0.428 1.053,-0.666 1.677,-0.666 0.623,0 1.223,0.238 1.676,0.666 l 12.021,12.023 c 0.332,0.332 0.559,0.755 0.65,1.216 0.092,0.46 0.045,0.938 -0.135,1.371 -0.18,0.434 -0.485,0.804 -0.876,1.065 -0.391,0.26 -0.851,0.398 -1.32,0.396 z"
         fill="#f9c7c5"
         id="path22" />
      <path
         d="m 399.026,191.362 c -0.312,0 -0.62,-0.061 -0.907,-0.181 -0.288,-0.119 -0.549,-0.294 -0.768,-0.515 l -10.343,-10.345 -10.339,10.342 c -0.22,0.22 -0.482,0.395 -0.769,0.514 -0.288,0.119 -0.596,0.181 -0.908,0.181 -0.311,0 -0.619,-0.062 -0.907,-0.181 -0.288,-0.119 -0.549,-0.294 -0.769,-0.514 -0.22,-0.22 -0.395,-0.481 -0.514,-0.769 -0.119,-0.288 -0.18,-0.596 -0.18,-0.907 0,-0.311 0.061,-0.62 0.18,-0.907 0.119,-0.288 0.294,-0.549 0.514,-0.77 l 12.017,-12.02 c 0.454,-0.428 1.054,-0.666 1.677,-0.666 0.623,0 1.223,0.238 1.676,0.666 l 12.021,12.024 c 0.332,0.331 0.559,0.754 0.65,1.215 0.092,0.46 0.045,0.938 -0.135,1.372 -0.18,0.433 -0.485,0.804 -0.876,1.064 -0.391,0.26 -0.851,0.398 -1.32,0.397 z"
         fill="#f9c7c5"
         id="path24" />
      <path
         d="m 423.064,191.361 c -0.312,0.001 -0.621,-0.06 -0.909,-0.179 -0.288,-0.119 -0.55,-0.295 -0.769,-0.516 l -10.34,-10.346 -10.343,10.343 c -0.22,0.22 -0.481,0.395 -0.769,0.514 -0.287,0.119 -0.596,0.18 -0.907,0.18 -0.311,0 -0.62,-0.061 -0.907,-0.18 -0.288,-0.119 -0.549,-0.294 -0.769,-0.514 -0.221,-0.22 -0.395,-0.481 -0.514,-0.769 -0.119,-0.288 -0.181,-0.596 -0.181,-0.907 0,-0.312 0.062,-0.62 0.181,-0.908 0.119,-0.287 0.293,-0.549 0.514,-0.769 l 12.02,-12.02 c 0.445,-0.444 1.047,-0.693 1.675,-0.693 0.628,0 1.23,0.249 1.675,0.693 l 12.017,12.023 c 0.332,0.332 0.559,0.754 0.651,1.214 0.092,0.46 0.045,0.937 -0.134,1.371 -0.18,0.433 -0.484,0.803 -0.874,1.064 -0.39,0.261 -0.848,0.4 -1.317,0.399 z"
         fill="#f9c7c5"
         id="path26" />
      <path
         d="m 447.096,191.362 c -0.311,0 -0.619,-0.061 -0.906,-0.181 -0.287,-0.119 -0.547,-0.294 -0.766,-0.515 l -10.343,-10.346 -10.342,10.343 c -0.22,0.22 -0.482,0.395 -0.769,0.514 -0.288,0.119 -0.596,0.181 -0.908,0.181 -0.311,0 -0.619,-0.062 -0.907,-0.181 -0.287,-0.119 -0.549,-0.294 -0.769,-0.514 -0.22,-0.22 -0.395,-0.481 -0.514,-0.769 -0.119,-0.288 -0.18,-0.596 -0.18,-0.907 0,-0.312 0.061,-0.62 0.18,-0.907 0.119,-0.288 0.294,-0.549 0.514,-0.77 l 12.021,-12.02 c 0.22,-0.22 0.481,-0.395 0.768,-0.514 0.287,-0.119 0.595,-0.181 0.906,-0.181 0.312,0 0.62,0.062 0.907,0.181 0.287,0.119 0.548,0.294 0.768,0.514 l 12.021,12.024 c 0.332,0.331 0.559,0.754 0.651,1.215 0.091,0.46 0.044,0.938 -0.136,1.372 -0.18,0.433 -0.485,0.804 -0.876,1.064 -0.391,0.26 -0.851,0.398 -1.32,0.397 z"
         fill="#f9c7c5"
         id="path28" />
      <path
         d="m 471.137,191.361 c -0.311,0.001 -0.619,-0.06 -0.907,-0.18 -0.287,-0.119 -0.548,-0.294 -0.768,-0.515 L 459.12,180.32 448.78,190.663 c -0.445,0.445 -1.048,0.694 -1.676,0.694 -0.629,0 -1.232,-0.249 -1.677,-0.694 -0.444,-0.445 -0.694,-1.048 -0.694,-1.676 0,-0.629 0.25,-1.232 0.694,-1.677 l 12.018,-12.02 c 0.444,-0.444 1.047,-0.693 1.675,-0.693 0.628,0 1.23,0.249 1.674,0.693 l 12.021,12.023 c 0.332,0.332 0.559,0.755 0.651,1.215 0.091,0.46 0.044,0.937 -0.135,1.371 -0.18,0.434 -0.484,0.804 -0.875,1.064 -0.391,0.261 -0.85,0.399 -1.319,0.398 z"
         fill="#f9c7c5"
         id="path30" />
    </g>
  </g>
  <defs
     id="defs37">
    <clipPath
       id="clip0">
      <rect
         width="800"
         height="306"
         fill="#ffffff"
         id="rect34"
         x="0"
         y="0" />
    </clipPath>
  </defs>
</svg>
